<?xml version="1.0" encoding="UTF-8"?>
<svg xmlns="http://www.w3.org/2000/svg" xmlns:xlink="http://www.w3.org/1999/xlink" width="36px" height="36px" viewBox="0 0 36 36" version="1.1">
<g id="surface1">
<path style=" stroke:none;fill-rule:evenodd;fill:rgb(17.254902%,17.254902%,17.254902%);fill-opacity:1;" d="M 12.453125 11.625 C 12.375 11.675781 12.371094 11.675781 11.820312 13.90625 C 11.53125 15.074219 11.121094 16.722656 10.910156 17.574219 C 10.496094 19.226562 10.492188 19.253906 10.558594 19.328125 C 10.617188 19.386719 10.644531 19.398438 11.042969 19.511719 C 11.539062 19.65625 11.589844 19.65625 11.65625 19.472656 C 11.671875 19.425781 11.695312 19.359375 11.710938 19.320312 C 11.816406 19.035156 12.015625 19.0625 12.257812 19.394531 C 12.601562 19.859375 13.054688 20.132812 13.703125 20.269531 C 15.179688 20.582031 16.496094 19.703125 17 18.066406 C 17.402344 16.765625 16.773438 15.226562 15.609375 14.652344 C 15.0625 14.386719 14.175781 14.335938 13.484375 14.535156 C 13.167969 14.628906 13.054688 14.613281 12.988281 14.476562 C 12.9375 14.371094 12.953125 14.28125 13.238281 13.125 C 13.382812 12.535156 13.503906 12.019531 13.503906 11.984375 C 13.507812 11.835938 13.460938 11.808594 12.980469 11.691406 C 12.554688 11.589844 12.519531 11.582031 12.453125 11.625 M 18.953125 11.886719 C 18.917969 11.898438 18.890625 11.910156 18.886719 11.910156 C 18.886719 11.910156 18.871094 11.941406 18.851562 11.980469 C 18.820312 12.050781 18.820312 12.0625 18.832031 12.914062 C 18.84375 13.84375 18.839844 13.9375 18.769531 14.050781 C 18.710938 14.15625 18.554688 14.21875 18.355469 14.21875 C 18.15625 14.21875 18.125 14.28125 18.132812 14.675781 C 18.140625 15.113281 18.144531 15.125 18.414062 15.15625 C 18.679688 15.191406 18.777344 15.269531 18.808594 15.480469 C 18.820312 15.542969 18.824219 16.125 18.824219 17.101562 C 18.824219 18.734375 18.828125 18.800781 18.902344 18.988281 C 19.046875 19.367188 19.445312 19.742188 19.851562 19.886719 L 19.972656 19.925781 L 20.507812 19.925781 C 21.203125 19.925781 21.160156 19.953125 21.179688 19.523438 C 21.1875 19.363281 21.203125 19.238281 21.214844 19.191406 C 21.277344 19 21.234375 18.976562 20.820312 18.960938 C 20.3125 18.9375 20.085938 18.792969 19.96875 18.402344 C 19.9375 18.300781 19.929688 17.316406 19.945312 16.199219 L 19.957031 15.441406 L 20.003906 15.351562 C 20.09375 15.175781 20.1875 15.148438 20.746094 15.148438 C 21.285156 15.148438 21.269531 15.164062 21.269531 14.679688 C 21.269531 14.1875 21.300781 14.214844 20.699219 14.203125 C 20.175781 14.191406 20.105469 14.175781 20.023438 14.046875 C 19.960938 13.941406 19.960938 13.929688 19.949219 12.960938 C 19.941406 11.914062 19.945312 11.949219 19.835938 11.894531 C 19.769531 11.863281 19.039062 11.855469 18.953125 11.886719 M 24.992188 13.5625 C 24.828125 13.679688 24.578125 14.15625 24.472656 14.558594 C 24.382812 14.902344 24.347656 14.945312 24.035156 15.152344 C 23.371094 15.59375 22.921875 16.402344 22.792969 17.386719 C 22.660156 18.394531 23.183594 19.238281 24.402344 19.972656 C 24.820312 20.222656 24.820312 20.425781 24.398438 20.511719 C 24.167969 20.5625 24.097656 20.59375 23.902344 20.722656 C 23.527344 20.976562 23.105469 20.96875 22.703125 20.699219 C 22.390625 20.488281 22.210938 20.207031 21.992188 19.582031 C 21.855469 19.179688 21.722656 19.003906 21.5625 19.003906 C 21.492188 19.003906 21.480469 19.039062 21.523438 19.117188 C 21.703125 19.425781 21.773438 19.632812 21.839844 20.023438 C 21.933594 20.582031 22.007812 20.75 22.285156 21.015625 C 22.496094 21.21875 22.703125 21.339844 22.980469 21.425781 C 23.34375 21.535156 23.378906 21.648438 23.203125 22.179688 C 23.03125 22.707031 22.921875 22.875 22.648438 23.054688 C 22.480469 23.164062 22.476562 23.214844 22.625 23.257812 C 22.976562 23.363281 23.203125 23.195312 23.40625 22.671875 C 23.917969 21.378906 24.054688 21.171875 24.363281 21.242188 C 24.628906 21.300781 24.597656 21.460938 24.128906 22.558594 C 24.074219 22.6875 23.992188 22.882812 23.945312 22.996094 C 23.816406 23.308594 23.734375 23.460938 23.613281 23.628906 C 23.3125 24.042969 23.835938 23.96875 24.152344 23.550781 C 24.257812 23.414062 24.320312 23.277344 24.644531 22.480469 C 24.972656 21.675781 24.992188 21.632812 25.054688 21.558594 C 25.21875 21.375 25.542969 21.4375 25.621094 21.667969 C 25.664062 21.796875 25.644531 21.859375 25.3125 22.671875 C 25.140625 23.09375 24.984375 23.496094 24.960938 23.566406 C 24.835938 23.9375 24.871094 24.3125 25.042969 24.441406 C 25.144531 24.523438 25.175781 24.492188 25.207031 24.273438 C 25.234375 24.101562 25.269531 23.964844 25.339844 23.78125 C 25.453125 23.488281 25.957031 22.261719 25.992188 22.195312 C 26.171875 21.859375 26.527344 22.007812 26.527344 22.417969 C 26.527344 22.601562 26.53125 22.589844 26.210938 23.382812 C 25.851562 24.269531 25.839844 24.359375 26.085938 24.613281 C 26.28125 24.820312 26.371094 24.785156 26.316406 24.523438 C 26.265625 24.292969 26.292969 24.179688 26.503906 23.648438 C 26.636719 23.316406 26.910156 22.589844 26.957031 22.449219 C 26.980469 22.371094 26.992188 22.289062 26.996094 22.15625 C 27.007812 21.886719 26.992188 21.839844 26.800781 21.46875 C 26.628906 21.144531 26.78125 21.035156 27.253906 21.140625 C 28.871094 21.5 29.941406 20.949219 30.53125 19.453125 C 30.753906 18.886719 30.820312 18.300781 30.714844 17.820312 C 30.625 17.402344 30.625 17.367188 30.765625 17.070312 C 31.019531 16.523438 31.125 16.066406 31.019531 15.949219 C 30.886719 15.804688 30.257812 15.738281 29.773438 15.816406 C 29.390625 15.878906 29.316406 15.863281 28.925781 15.628906 C 28.199219 15.1875 27.554688 14.9375 26.707031 14.761719 C 26.371094 14.691406 26.324219 14.660156 26.089844 14.347656 C 25.671875 13.800781 25.167969 13.441406 24.992188 13.5625 M 7.402344 13.945312 C 7.035156 13.996094 6.730469 14.113281 6.429688 14.316406 C 5.34375 15.050781 5.386719 16.238281 6.527344 16.910156 C 6.691406 17.003906 6.8125 17.054688 7.125 17.152344 C 7.84375 17.375 8.285156 17.582031 8.511719 17.808594 C 8.863281 18.164062 8.703125 18.710938 8.191406 18.910156 C 7.628906 19.128906 7.054688 19.011719 6.332031 18.535156 C 5.980469 18.300781 5.984375 18.296875 5.597656 18.65625 C 5.3125 18.921875 5.316406 18.980469 5.621094 19.25 C 6.273438 19.820312 6.617188 19.941406 7.546875 19.929688 C 8.53125 19.917969 8.9375 19.773438 9.488281 19.242188 C 9.78125 18.957031 9.839844 18.832031 9.851562 18.464844 C 9.878906 17.464844 9.460938 16.929688 8.378906 16.574219 C 7.234375 16.199219 6.746094 15.835938 6.824219 15.410156 C 6.921875 14.882812 7.664062 14.78125 8.59375 15.171875 C 8.957031 15.324219 8.964844 15.324219 9.246094 15.046875 C 9.558594 14.738281 9.546875 14.683594 9.117188 14.386719 C 8.660156 14.078125 7.875 13.875 7.402344 13.945312 M 14.746094 15.230469 C 14.839844 15.28125 14.992188 15.425781 15.652344 16.105469 C 16.328125 16.796875 16.296875 16.652344 16.023438 17.761719 C 15.699219 19.058594 15.855469 18.898438 14.59375 19.246094 C 13.488281 19.550781 13.675781 19.609375 12.722656 18.644531 C 11.921875 17.832031 11.96875 18.003906 12.253906 16.84375 C 12.53125 15.714844 12.535156 15.710938 12.921875 15.597656 C 13.078125 15.554688 14.324219 15.214844 14.390625 15.195312 C 14.5 15.167969 14.652344 15.183594 14.746094 15.230469 "/>
<path style=" stroke:none;fill-rule:evenodd;fill:rgb(98.431373%,98.431373%,98.431373%);fill-opacity:1;" d="M 16.792969 1.660156 C 12.605469 2.042969 9.179688 3.613281 6.375 6.433594 C 3.601562 9.21875 2.035156 12.648438 1.664062 16.742188 C 1.625 17.1875 1.621094 18.742188 1.65625 19.179688 C 2.054688 23.820312 4.050781 27.722656 7.492188 30.601562 C 10.148438 32.820312 13.332031 34.085938 16.921875 34.351562 C 17.710938 34.410156 19.359375 34.351562 20.210938 34.238281 C 27.765625 33.21875 33.570312 27.203125 34.304688 19.628906 C 34.363281 19.023438 34.367188 18.875 34.363281 17.859375 C 34.335938 13.59375 32.816406 9.808594 29.882812 6.6875 C 27.152344 3.78125 23.480469 2.046875 19.257812 1.664062 C 18.832031 1.628906 17.1875 1.625 16.792969 1.660156 M 12.980469 11.378906 C 13.988281 11.621094 13.949219 11.519531 13.574219 13.027344 C 13.246094 14.355469 13.242188 14.265625 13.636719 14.183594 C 15.160156 13.863281 16.425781 14.453125 17.085938 15.789062 C 18.074219 17.789062 16.753906 20.359375 14.59375 20.625 C 13.757812 20.726562 12.832031 20.421875 12.257812 19.847656 C 12 19.59375 11.972656 19.585938 11.886719 19.753906 C 11.769531 19.988281 11.625 20 10.996094 19.816406 C 10.125 19.566406 10.097656 19.523438 10.289062 18.796875 C 10.332031 18.632812 10.433594 18.234375 10.515625 17.902344 C 11.546875 13.738281 11.828125 12.617188 11.941406 12.148438 C 12.175781 11.191406 12.183594 11.1875 12.980469 11.378906 M 20.027344 11.613281 C 20.242188 11.710938 20.238281 11.707031 20.25 12.824219 C 20.257812 14.023438 20.1875 13.890625 20.832031 13.90625 C 21.554688 13.917969 21.578125 13.9375 21.574219 14.664062 C 21.570312 15.425781 21.558594 15.4375 20.84375 15.453125 C 20.351562 15.460938 20.328125 15.464844 20.28125 15.546875 C 20.253906 15.597656 20.226562 17.730469 20.25 18.132812 C 20.277344 18.617188 20.460938 18.703125 21.347656 18.640625 C 21.820312 18.605469 22.058594 18.828125 22.296875 19.53125 C 22.492188 20.09375 22.675781 20.363281 22.96875 20.503906 C 23.25 20.640625 23.511719 20.628906 23.734375 20.472656 C 23.785156 20.433594 23.878906 20.375 23.941406 20.339844 C 24.140625 20.230469 24.152344 20.195312 24.027344 20.101562 C 23.984375 20.066406 23.851562 19.972656 23.738281 19.886719 C 22.542969 18.996094 22.207031 17.945312 22.675781 16.542969 C 22.90625 15.847656 23.316406 15.277344 23.835938 14.925781 C 24.042969 14.785156 24.109375 14.714844 24.140625 14.605469 C 24.152344 14.5625 24.179688 14.464844 24.203125 14.386719 C 24.347656 13.871094 24.734375 13.273438 24.96875 13.207031 C 25.25 13.125 25.867188 13.558594 26.320312 14.160156 C 26.511719 14.40625 26.523438 14.414062 26.878906 14.488281 C 27.648438 14.648438 28.3125 14.910156 29.050781 15.347656 C 29.398438 15.558594 29.398438 15.558594 29.761719 15.511719 C 30.53125 15.410156 31.199219 15.542969 31.339844 15.816406 C 31.441406 16.019531 31.328125 16.582031 31.066406 17.144531 C 30.949219 17.394531 30.945312 17.425781 31.003906 17.710938 C 31.1875 18.582031 30.945312 19.585938 30.347656 20.4375 C 29.734375 21.308594 28.695312 21.707031 27.546875 21.511719 C 27.199219 21.453125 27.179688 21.464844 27.246094 21.691406 C 27.386719 22.15625 27.335938 22.382812 26.773438 23.789062 C 26.574219 24.289062 26.566406 24.359375 26.683594 24.621094 C 26.835938 24.960938 26.742188 25.167969 26.449219 25.152344 C 26.15625 25.132812 25.851562 24.890625 25.640625 24.5 C 25.589844 24.40625 25.546875 24.359375 25.542969 24.402344 C 25.53125 24.941406 25.246094 25.085938 24.878906 24.730469 C 24.617188 24.472656 24.550781 24.246094 24.589844 23.703125 C 24.609375 23.476562 24.605469 23.476562 24.449219 23.671875 C 24.085938 24.125 23.757812 24.277344 23.351562 24.1875 C 23.042969 24.121094 22.976562 23.929688 23.164062 23.644531 C 23.242188 23.523438 23.230469 23.515625 23.0625 23.550781 C 22.449219 23.679688 21.863281 23.375 22.070312 23.039062 C 22.117188 22.957031 22.164062 22.929688 22.34375 22.855469 C 22.667969 22.71875 22.742188 22.625 22.90625 22.117188 C 23.011719 21.789062 23.003906 21.765625 22.78125 21.679688 C 22.125 21.433594 21.730469 20.984375 21.578125 20.3125 C 21.515625 20.035156 21.5 20.019531 21.378906 20.113281 C 21.234375 20.230469 21.257812 20.226562 20.597656 20.230469 C 19.9375 20.238281 19.875 20.230469 19.660156 20.136719 C 19.226562 19.949219 18.828125 19.566406 18.636719 19.152344 C 18.527344 18.910156 18.535156 19.042969 18.527344 17.226562 C 18.515625 15.59375 18.515625 15.585938 18.484375 15.542969 C 18.441406 15.484375 18.402344 15.46875 18.246094 15.453125 C 17.867188 15.410156 17.804688 15.261719 17.824219 14.460938 C 17.835938 14.015625 17.945312 13.910156 18.394531 13.90625 C 18.410156 13.90625 18.445312 13.882812 18.472656 13.855469 L 18.523438 13.804688 L 18.523438 12.859375 C 18.523438 11.484375 18.46875 11.5625 19.410156 11.570312 L 19.941406 11.574219 L 20.027344 11.613281 M 8.0625 13.671875 C 8.648438 13.765625 9.082031 13.953125 9.515625 14.308594 C 9.929688 14.648438 9.925781 14.800781 9.496094 15.226562 C 9.050781 15.664062 8.996094 15.679688 8.558594 15.488281 C 7.878906 15.191406 7.316406 15.152344 7.167969 15.394531 C 7.015625 15.648438 7.445312 15.949219 8.410156 16.265625 C 9.636719 16.667969 10.101562 17.210938 10.164062 18.308594 C 10.191406 18.859375 10.0625 19.144531 9.605469 19.546875 C 8.996094 20.082031 8.523438 20.234375 7.460938 20.238281 C 6.78125 20.238281 6.558594 20.195312 6.160156 19.992188 C 5.738281 19.777344 5.175781 19.308594 5.078125 19.089844 C 4.976562 18.871094 5.027344 18.765625 5.421875 18.410156 C 5.949219 17.929688 5.972656 17.925781 6.476562 18.265625 C 6.972656 18.597656 7.277344 18.710938 7.648438 18.699219 C 8.03125 18.6875 8.25 18.59375 8.347656 18.402344 C 8.523438 18.058594 8.144531 17.785156 7.019531 17.4375 C 6.605469 17.308594 6.445312 17.234375 6.160156 17.027344 C 5.023438 16.21875 5.074219 14.855469 6.269531 14.0625 C 6.835938 13.6875 7.390625 13.566406 8.0625 13.671875 M 14.289062 15.539062 C 13.730469 15.683594 12.957031 15.90625 12.898438 15.933594 C 12.78125 15.996094 12.769531 16.023438 12.5625 16.867188 C 12.359375 17.695312 12.351562 17.757812 12.40625 17.871094 C 12.453125 17.960938 13.558594 19.070312 13.648438 19.113281 C 13.746094 19.160156 13.796875 19.148438 14.59375 18.929688 C 15.433594 18.699219 15.441406 18.695312 15.503906 18.550781 C 15.542969 18.453125 15.898438 16.980469 15.898438 16.910156 C 15.898438 16.789062 15.847656 16.726562 15.253906 16.125 C 14.558594 15.425781 14.609375 15.457031 14.289062 15.539062 "/>
<path style=" stroke:none;fill-rule:evenodd;fill:rgb(63.921569%,63.921569%,63.921569%);fill-opacity:1;" d="M 12.402344 11.417969 C 12.226562 11.476562 12.265625 11.347656 11.667969 13.761719 C 11.386719 14.890625 10.972656 16.566406 10.746094 17.484375 C 10.296875 19.285156 10.296875 19.289062 10.363281 19.402344 C 10.429688 19.519531 10.476562 19.539062 11.039062 19.703125 C 11.621094 19.871094 11.695312 19.859375 11.820312 19.582031 C 11.925781 19.34375 11.984375 19.347656 12.210938 19.621094 C 12.941406 20.5 14.359375 20.773438 15.453125 20.25 C 16.414062 19.792969 17.132812 18.746094 17.289062 17.578125 C 17.453125 16.363281 16.726562 14.984375 15.65625 14.476562 C 15.121094 14.21875 14.253906 14.160156 13.558594 14.328125 C 13.296875 14.390625 13.308594 14.386719 13.253906 14.371094 C 13.128906 14.328125 13.128906 14.332031 13.4375 13.066406 C 13.742188 11.824219 13.742188 11.828125 13.601562 11.703125 C 13.476562 11.597656 12.539062 11.375 12.402344 11.417969 M 12.980469 11.566406 C 13.503906 11.695312 13.558594 11.714844 13.613281 11.820312 C 13.660156 11.910156 13.640625 11.996094 13.375 13.082031 C 13.085938 14.246094 13.082031 14.277344 13.117188 14.359375 C 13.164062 14.472656 13.214844 14.476562 13.554688 14.390625 C 14.042969 14.265625 14.644531 14.261719 15.160156 14.371094 C 16.542969 14.671875 17.511719 16.339844 17.179688 17.851562 C 16.8125 19.519531 15.4375 20.625 13.96875 20.4375 C 13.171875 20.335938 12.617188 20.042969 12.167969 19.480469 C 11.980469 19.246094 11.882812 19.253906 11.777344 19.515625 C 11.660156 19.800781 11.617188 19.808594 10.996094 19.628906 C 10.515625 19.488281 10.472656 19.46875 10.414062 19.359375 C 10.367188 19.265625 10.378906 19.203125 10.949219 16.90625 C 11.257812 15.671875 11.667969 14.007812 11.867188 13.210938 C 12.246094 11.683594 12.253906 11.644531 12.304688 11.574219 C 12.394531 11.445312 12.484375 11.445312 12.980469 11.566406 M 18.867188 11.707031 C 18.644531 11.765625 18.640625 11.78125 18.648438 12.914062 C 18.652344 14.042969 18.664062 13.996094 18.386719 14.027344 C 17.949219 14.078125 17.917969 14.128906 17.953125 14.816406 C 17.972656 15.246094 18.011719 15.300781 18.3125 15.332031 C 18.488281 15.351562 18.5625 15.386719 18.605469 15.472656 C 18.636719 15.53125 18.636719 15.546875 18.644531 17.183594 C 18.65625 19.039062 18.644531 18.886719 18.773438 19.148438 C 18.976562 19.558594 19.429688 19.949219 19.851562 20.078125 C 20.003906 20.125 21.101562 20.121094 21.191406 20.074219 C 21.285156 20.023438 21.328125 19.949219 21.359375 19.777344 C 21.441406 19.371094 21.5625 19.511719 21.675781 20.144531 C 21.804688 20.882812 22.179688 21.339844 22.835938 21.570312 C 23.152344 21.679688 23.164062 21.71875 23.023438 22.148438 C 22.855469 22.664062 22.765625 22.789062 22.464844 22.933594 C 22.082031 23.121094 22.097656 23.324219 22.507812 23.429688 C 23.042969 23.566406 23.335938 23.367188 23.609375 22.675781 C 24.011719 21.660156 24.097656 21.496094 24.222656 21.496094 C 24.359375 21.496094 24.324219 21.628906 23.941406 22.519531 C 23.859375 22.710938 23.75 22.964844 23.699219 23.085938 C 23.589844 23.347656 23.511719 23.472656 23.371094 23.628906 C 23.253906 23.757812 23.21875 23.8125 23.21875 23.878906 C 23.21875 24.167969 23.789062 24.152344 24.117188 23.855469 C 24.359375 23.636719 24.402344 23.558594 24.835938 22.492188 C 25.179688 21.640625 25.207031 21.601562 25.363281 21.683594 C 25.488281 21.746094 25.480469 21.78125 25.117188 22.671875 C 24.679688 23.753906 24.632812 23.941406 24.730469 24.261719 C 24.890625 24.773438 25.378906 24.957031 25.378906 24.507812 C 25.378906 24.191406 25.414062 24.078125 25.792969 23.152344 C 26.164062 22.238281 26.179688 22.214844 26.289062 22.308594 C 26.394531 22.402344 26.367188 22.507812 26.042969 23.300781 C 25.742188 24.046875 25.734375 24.066406 25.734375 24.226562 C 25.738281 24.589844 26.105469 25.003906 26.433594 25.011719 C 26.613281 25.015625 26.652344 24.890625 26.554688 24.640625 C 26.441406 24.351562 26.449219 24.28125 26.632812 23.816406 C 27.246094 22.261719 27.28125 22.09375 27.089844 21.632812 C 26.957031 21.320312 27.003906 21.277344 27.398438 21.359375 C 28.484375 21.585938 29.480469 21.292969 30.082031 20.578125 C 30.753906 19.78125 31.078125 18.636719 30.886719 17.746094 C 30.816406 17.417969 30.820312 17.382812 30.960938 17.078125 C 31.117188 16.730469 31.199219 16.460938 31.253906 16.113281 C 31.269531 16.015625 31.234375 15.890625 31.175781 15.824219 C 31.007812 15.640625 30.402344 15.550781 29.808594 15.628906 C 29.378906 15.683594 29.359375 15.679688 28.996094 15.460938 C 28.292969 15.035156 27.601562 14.765625 26.792969 14.59375 C 26.472656 14.527344 26.425781 14.5 26.222656 14.230469 C 25.84375 13.722656 25.234375 13.273438 25.011719 13.332031 C 24.789062 13.394531 24.425781 13.996094 24.292969 14.523438 C 24.226562 14.785156 24.191406 14.832031 23.925781 15.011719 C 23.34375 15.402344 22.925781 16.035156 22.710938 16.851562 C 22.363281 18.160156 22.773438 19.097656 24.082031 19.980469 C 24.441406 20.226562 24.445312 20.265625 24.125 20.394531 C 24.058594 20.417969 23.929688 20.488281 23.835938 20.550781 C 23.503906 20.765625 23.261719 20.78125 22.910156 20.609375 C 22.597656 20.457031 22.394531 20.171875 22.195312 19.605469 C 22.039062 19.167969 21.976562 19.050781 21.832031 18.914062 C 21.679688 18.777344 21.558594 18.738281 21.335938 18.765625 C 20.527344 18.855469 20.183594 18.703125 20.128906 18.21875 C 20.105469 18.03125 20.125 15.648438 20.148438 15.535156 C 20.1875 15.355469 20.222656 15.339844 20.78125 15.332031 C 21.300781 15.320312 21.324219 15.316406 21.402344 15.179688 L 21.441406 15.113281 L 21.441406 14.242188 L 21.402344 14.171875 C 21.324219 14.042969 21.292969 14.035156 20.773438 14.023438 C 20.074219 14.011719 20.140625 14.125 20.128906 12.886719 L 20.121094 11.949219 L 20.082031 11.863281 C 20.035156 11.773438 19.976562 11.722656 19.875 11.699219 C 19.773438 11.679688 18.957031 11.683594 18.867188 11.707031 M 19.867188 11.765625 C 19.949219 11.789062 20.011719 11.84375 20.042969 11.917969 C 20.058594 11.953125 20.0625 12.183594 20.070312 12.898438 C 20.082031 14.167969 20.023438 14.066406 20.761719 14.082031 C 21.40625 14.097656 21.390625 14.082031 21.390625 14.671875 C 21.386719 15.273438 21.40625 15.257812 20.761719 15.269531 C 20.03125 15.285156 20.085938 15.207031 20.066406 16.304688 C 20.035156 18.292969 20.050781 18.46875 20.273438 18.671875 C 20.433594 18.820312 20.570312 18.847656 21.144531 18.835938 C 21.796875 18.820312 21.886719 18.890625 22.132812 19.605469 C 22.289062 20.0625 22.453125 20.339844 22.671875 20.523438 C 22.992188 20.792969 23.457031 20.863281 23.742188 20.683594 C 23.785156 20.65625 23.871094 20.597656 23.9375 20.554688 C 24.019531 20.503906 24.117188 20.460938 24.234375 20.421875 C 24.574219 20.308594 24.566406 20.230469 24.195312 19.988281 C 22.765625 19.054688 22.367188 18.050781 22.847656 16.597656 C 23.066406 15.933594 23.457031 15.398438 23.984375 15.039062 C 24.214844 14.882812 24.265625 14.824219 24.316406 14.648438 C 24.535156 13.890625 24.839844 13.394531 25.089844 13.394531 C 25.316406 13.394531 25.832031 13.808594 26.183594 14.273438 C 26.394531 14.550781 26.445312 14.582031 26.816406 14.660156 C 27.617188 14.832031 28.261719 15.085938 28.988281 15.523438 C 29.347656 15.742188 29.386719 15.746094 29.863281 15.683594 C 30.441406 15.605469 31.058594 15.71875 31.164062 15.921875 C 31.242188 16.066406 31.117188 16.609375 30.90625 17.050781 C 30.761719 17.363281 30.753906 17.433594 30.832031 17.78125 C 31.011719 18.578125 30.730469 19.625 30.125 20.429688 C 29.640625 21.074219 28.882812 21.40625 27.976562 21.371094 C 27.761719 21.359375 27.648438 21.34375 27.210938 21.261719 C 26.910156 21.207031 26.863281 21.289062 27.003906 21.59375 C 27.226562 22.074219 27.207031 22.179688 26.632812 23.65625 C 26.382812 24.292969 26.375 24.34375 26.480469 24.621094 C 26.566406 24.851562 26.546875 24.9375 26.40625 24.9375 C 26.171875 24.933594 25.855469 24.613281 25.800781 24.324219 C 25.769531 24.148438 25.777344 24.117188 26.140625 23.226562 C 26.40625 22.574219 26.429688 22.496094 26.398438 22.351562 C 26.355469 22.148438 26.183594 22.125 26.078125 22.308594 C 26.046875 22.367188 25.625 23.390625 25.472656 23.773438 C 25.375 24.03125 25.335938 24.191406 25.324219 24.390625 C 25.316406 24.589844 25.292969 24.652344 25.234375 24.675781 C 25.070312 24.738281 24.804688 24.429688 24.765625 24.128906 C 24.722656 23.824219 24.757812 23.710938 25.28125 22.425781 C 25.511719 21.859375 25.53125 21.785156 25.472656 21.683594 C 25.394531 21.5625 25.246094 21.554688 25.136719 21.671875 C 25.082031 21.730469 25.082031 21.734375 24.765625 22.511719 C 24.367188 23.484375 24.328125 23.558594 24.132812 23.757812 C 23.886719 24.011719 23.492188 24.109375 23.335938 23.953125 C 23.265625 23.882812 23.285156 23.816406 23.429688 23.65625 C 23.601562 23.457031 23.648438 23.375 23.8125 22.988281 C 23.867188 22.855469 23.964844 22.628906 24.027344 22.484375 C 24.386719 21.640625 24.429688 21.503906 24.339844 21.425781 C 24.285156 21.378906 24.21875 21.382812 24.132812 21.441406 C 24.019531 21.519531 23.960938 21.632812 23.59375 22.546875 C 23.363281 23.113281 23.308594 23.199219 23.113281 23.3125 C 22.894531 23.445312 22.472656 23.421875 22.324219 23.273438 C 22.226562 23.171875 22.269531 23.105469 22.503906 22.984375 C 22.8125 22.828125 22.910156 22.6875 23.082031 22.152344 C 23.234375 21.691406 23.214844 21.640625 22.867188 21.515625 C 22.367188 21.339844 21.976562 20.972656 21.832031 20.546875 C 21.785156 20.40625 21.773438 20.359375 21.71875 20.054688 C 21.601562 19.371094 21.359375 19.097656 21.3125 19.589844 C 21.265625 20.0625 21.273438 20.058594 20.484375 20.050781 L 19.941406 20.046875 L 19.824219 20.003906 C 19.402344 19.855469 18.988281 19.484375 18.808594 19.089844 C 18.707031 18.863281 18.714844 18.988281 18.707031 17.167969 C 18.699219 15.625 18.695312 15.511719 18.671875 15.457031 C 18.617188 15.335938 18.539062 15.292969 18.359375 15.277344 C 18.054688 15.25 18.023438 15.203125 18.007812 14.707031 C 17.992188 14.195312 18.023438 14.128906 18.320312 14.097656 C 18.730469 14.058594 18.714844 14.105469 18.707031 12.921875 C 18.699219 11.652344 18.644531 11.75 19.375 11.746094 C 19.703125 11.746094 19.808594 11.75 19.867188 11.765625 M 7.3125 13.773438 C 6.5 13.890625 5.683594 14.546875 5.511719 15.214844 C 5.28125 16.132812 5.886719 16.960938 7.050781 17.316406 C 8.273438 17.691406 8.675781 18.011719 8.464844 18.449219 C 8.347656 18.6875 8.09375 18.808594 7.65625 18.820312 C 7.238281 18.835938 6.929688 18.722656 6.40625 18.363281 C 5.972656 18.070312 5.941406 18.078125 5.367188 18.628906 C 5.105469 18.878906 5.109375 18.996094 5.375 19.261719 C 5.816406 19.699219 6.324219 19.992188 6.800781 20.085938 C 6.972656 20.121094 8.015625 20.113281 8.210938 20.082031 C 8.832031 19.972656 9.203125 19.777344 9.644531 19.335938 C 9.960938 19.019531 10.023438 18.882812 10.03125 18.457031 C 10.058594 17.359375 9.597656 16.785156 8.355469 16.375 C 7.304688 16.027344 6.867188 15.6875 7.039062 15.359375 C 7.210938 15.035156 7.808594 15.035156 8.578125 15.363281 C 8.976562 15.53125 9.015625 15.523438 9.378906 15.167969 C 9.742188 14.8125 9.761719 14.710938 9.523438 14.480469 C 8.992188 13.972656 8.035156 13.667969 7.3125 13.773438 M 8.03125 13.851562 C 8.578125 13.9375 8.980469 14.109375 9.394531 14.441406 C 9.695312 14.6875 9.691406 14.777344 9.355469 15.113281 C 9.015625 15.449219 8.953125 15.464844 8.617188 15.316406 C 7.8125 14.957031 7.144531 14.972656 6.972656 15.351562 C 6.804688 15.71875 7.273438 16.082031 8.398438 16.453125 C 9.535156 16.828125 9.976562 17.375 9.976562 18.398438 C 9.972656 18.859375 9.878906 19.0625 9.511719 19.390625 C 9.066406 19.789062 8.683594 19.960938 8.09375 20.03125 C 7.820312 20.066406 6.921875 20.058594 6.765625 20.019531 C 6.308594 19.910156 5.882812 19.664062 5.46875 19.269531 C 5.148438 18.96875 5.15625 18.890625 5.546875 18.539062 C 5.972656 18.152344 5.972656 18.152344 6.382812 18.421875 C 6.957031 18.796875 7.242188 18.898438 7.675781 18.882812 C 8.128906 18.863281 8.429688 18.710938 8.535156 18.4375 C 8.71875 17.980469 8.300781 17.640625 7.101562 17.273438 C 6.769531 17.171875 6.644531 17.117188 6.472656 17.019531 C 5.175781 16.253906 5.210938 14.859375 6.539062 14.105469 C 7.003906 13.84375 7.464844 13.765625 8.03125 13.851562 M 14.4375 15.316406 C 14.371094 15.328125 13.648438 15.523438 13.09375 15.675781 C 12.613281 15.8125 12.648438 15.757812 12.378906 16.84375 C 12.097656 17.976562 12.046875 17.789062 12.871094 18.621094 C 13.714844 19.472656 13.511719 19.414062 14.621094 19.109375 C 15.746094 18.800781 15.601562 18.953125 15.894531 17.765625 C 16.164062 16.664062 16.203125 16.835938 15.5 16.117188 C 14.667969 15.273438 14.675781 15.28125 14.4375 15.316406 M 14.679688 15.414062 C 14.78125 15.464844 15.902344 16.589844 15.972656 16.710938 C 16.050781 16.851562 16.046875 16.890625 15.839844 17.738281 C 15.597656 18.730469 15.589844 18.742188 15.410156 18.820312 C 15.246094 18.890625 13.859375 19.261719 13.757812 19.261719 C 13.578125 19.261719 13.558594 19.242188 12.851562 18.523438 C 12.257812 17.914062 12.246094 17.902344 12.25 17.730469 C 12.25 17.59375 12.601562 16.136719 12.667969 15.996094 C 12.742188 15.835938 12.765625 15.828125 13.675781 15.578125 C 14.496094 15.351562 14.542969 15.34375 14.679688 15.414062 "/>
<path style=" stroke:none;fill-rule:evenodd;fill:rgb(48.627451%,48.627451%,48.627451%);fill-opacity:1;" d="M 12.378906 11.503906 C 12.265625 11.574219 12.296875 11.480469 11.867188 13.210938 C 11.667969 14.007812 11.257812 15.671875 10.949219 16.90625 C 10.378906 19.203125 10.367188 19.265625 10.414062 19.359375 C 10.472656 19.46875 10.515625 19.488281 10.996094 19.628906 C 11.617188 19.808594 11.660156 19.800781 11.777344 19.515625 C 11.882812 19.253906 11.980469 19.246094 12.167969 19.480469 C 13.058594 20.59375 14.738281 20.785156 15.90625 19.910156 C 17.347656 18.824219 17.664062 16.765625 16.609375 15.347656 C 15.929688 14.441406 14.78125 14.078125 13.554688 14.390625 C 13.214844 14.476562 13.164062 14.472656 13.117188 14.359375 C 13.082031 14.277344 13.085938 14.246094 13.375 13.082031 C 13.679688 11.84375 13.679688 11.84375 13.542969 11.738281 C 13.378906 11.617188 12.492188 11.4375 12.378906 11.503906 M 12.980469 11.691406 C 13.460938 11.808594 13.507812 11.835938 13.503906 11.984375 C 13.503906 12.019531 13.382812 12.535156 13.238281 13.125 C 12.953125 14.28125 12.9375 14.371094 12.988281 14.476562 C 13.054688 14.613281 13.167969 14.628906 13.484375 14.535156 C 14.175781 14.335938 15.0625 14.386719 15.609375 14.652344 C 16.773438 15.226562 17.402344 16.765625 17 18.066406 C 16.496094 19.703125 15.179688 20.582031 13.703125 20.269531 C 13.054688 20.132812 12.601562 19.859375 12.257812 19.394531 C 12.015625 19.0625 11.816406 19.035156 11.710938 19.320312 C 11.695312 19.359375 11.671875 19.425781 11.65625 19.472656 C 11.589844 19.65625 11.539062 19.65625 11.042969 19.511719 C 10.644531 19.398438 10.617188 19.386719 10.558594 19.328125 C 10.492188 19.253906 10.496094 19.226562 10.910156 17.574219 C 11.121094 16.722656 11.53125 15.074219 11.820312 13.90625 C 12.109375 12.738281 12.359375 11.753906 12.375 11.71875 C 12.441406 11.570312 12.480469 11.570312 12.980469 11.691406 M 18.894531 11.761719 C 18.703125 11.8125 18.699219 11.824219 18.707031 12.921875 C 18.714844 14.105469 18.730469 14.058594 18.320312 14.097656 C 18.023438 14.128906 17.992188 14.195312 18.007812 14.707031 C 18.023438 15.203125 18.054688 15.25 18.359375 15.277344 C 18.539062 15.292969 18.617188 15.335938 18.671875 15.457031 C 18.695312 15.511719 18.699219 15.625 18.707031 17.167969 C 18.714844 18.988281 18.707031 18.863281 18.808594 19.089844 C 18.988281 19.484375 19.402344 19.855469 19.824219 20.003906 L 19.941406 20.046875 L 20.484375 20.050781 C 21.273438 20.058594 21.265625 20.0625 21.3125 19.589844 C 21.359375 19.097656 21.601562 19.371094 21.71875 20.054688 C 21.773438 20.359375 21.785156 20.40625 21.832031 20.546875 C 21.976562 20.972656 22.367188 21.339844 22.867188 21.515625 C 23.214844 21.640625 23.234375 21.691406 23.082031 22.152344 C 22.910156 22.6875 22.8125 22.828125 22.503906 22.984375 C 22.269531 23.105469 22.226562 23.171875 22.324219 23.273438 C 22.472656 23.421875 22.894531 23.445312 23.113281 23.3125 C 23.308594 23.199219 23.363281 23.113281 23.59375 22.546875 C 23.960938 21.632812 24.019531 21.519531 24.132812 21.441406 C 24.21875 21.382812 24.285156 21.378906 24.339844 21.425781 C 24.429688 21.503906 24.386719 21.640625 24.027344 22.484375 C 23.964844 22.628906 23.867188 22.855469 23.8125 22.988281 C 23.648438 23.375 23.601562 23.457031 23.429688 23.65625 C 23.285156 23.816406 23.265625 23.882812 23.335938 23.953125 C 23.492188 24.109375 23.886719 24.011719 24.132812 23.757812 C 24.328125 23.558594 24.367188 23.484375 24.765625 22.511719 C 25.082031 21.734375 25.082031 21.730469 25.136719 21.671875 C 25.246094 21.554688 25.394531 21.5625 25.472656 21.683594 C 25.53125 21.785156 25.511719 21.859375 25.28125 22.425781 C 24.757812 23.710938 24.722656 23.824219 24.765625 24.128906 C 24.804688 24.429688 25.070312 24.738281 25.234375 24.675781 C 25.292969 24.652344 25.316406 24.589844 25.324219 24.390625 C 25.335938 24.191406 25.375 24.03125 25.472656 23.773438 C 25.625 23.390625 26.046875 22.367188 26.078125 22.308594 C 26.183594 22.125 26.355469 22.148438 26.398438 22.351562 C 26.429688 22.496094 26.40625 22.574219 26.140625 23.226562 C 25.777344 24.117188 25.769531 24.148438 25.800781 24.324219 C 25.855469 24.613281 26.171875 24.933594 26.40625 24.9375 C 26.546875 24.9375 26.566406 24.851562 26.480469 24.621094 C 26.375 24.34375 26.382812 24.292969 26.632812 23.65625 C 27.207031 22.179688 27.226562 22.074219 27.003906 21.59375 C 26.863281 21.289062 26.910156 21.207031 27.210938 21.261719 C 27.648438 21.34375 27.761719 21.359375 27.976562 21.371094 C 28.882812 21.40625 29.640625 21.074219 30.125 20.429688 C 30.730469 19.625 31.011719 18.578125 30.832031 17.78125 C 30.753906 17.433594 30.761719 17.363281 30.90625 17.050781 C 31.117188 16.609375 31.242188 16.066406 31.164062 15.921875 C 31.058594 15.71875 30.441406 15.605469 29.863281 15.683594 C 29.386719 15.746094 29.347656 15.742188 28.988281 15.523438 C 28.261719 15.085938 27.617188 14.832031 26.816406 14.660156 C 26.445312 14.582031 26.394531 14.550781 26.183594 14.273438 C 25.832031 13.808594 25.316406 13.394531 25.089844 13.394531 C 24.839844 13.394531 24.535156 13.890625 24.316406 14.648438 C 24.265625 14.824219 24.214844 14.882812 23.984375 15.039062 C 23.457031 15.398438 23.066406 15.933594 22.847656 16.597656 C 22.367188 18.050781 22.765625 19.054688 24.195312 19.988281 C 24.566406 20.230469 24.574219 20.308594 24.234375 20.421875 C 24.117188 20.460938 24.019531 20.503906 23.9375 20.554688 C 23.871094 20.597656 23.785156 20.65625 23.742188 20.683594 C 23.457031 20.863281 22.992188 20.792969 22.671875 20.523438 C 22.453125 20.339844 22.289062 20.0625 22.132812 19.605469 C 21.886719 18.890625 21.796875 18.820312 21.144531 18.835938 C 20.570312 18.847656 20.433594 18.820312 20.273438 18.671875 C 20.050781 18.46875 20.035156 18.292969 20.066406 16.304688 C 20.085938 15.207031 20.03125 15.285156 20.761719 15.269531 C 21.40625 15.257812 21.386719 15.273438 21.390625 14.671875 C 21.390625 14.082031 21.40625 14.097656 20.761719 14.082031 C 20.277344 14.074219 20.234375 14.066406 20.164062 13.988281 C 20.078125 13.898438 20.078125 13.914062 20.070312 12.898438 C 20.058594 11.648438 20.117188 11.742188 19.375 11.746094 C 19.140625 11.746094 18.925781 11.753906 18.894531 11.761719 M 19.835938 11.894531 C 19.945312 11.949219 19.941406 11.914062 19.949219 12.960938 C 19.960938 13.929688 19.960938 13.941406 20.023438 14.046875 C 20.105469 14.175781 20.175781 14.191406 20.699219 14.203125 C 21.300781 14.214844 21.269531 14.1875 21.269531 14.679688 C 21.269531 15.164062 21.285156 15.148438 20.746094 15.148438 C 20.1875 15.148438 20.09375 15.175781 20.003906 15.351562 L 19.957031 15.441406 L 19.945312 16.199219 C 19.929688 17.316406 19.9375 18.300781 19.96875 18.402344 C 20.085938 18.792969 20.3125 18.9375 20.820312 18.960938 C 21.234375 18.976562 21.277344 19 21.214844 19.191406 C 21.203125 19.238281 21.1875 19.363281 21.179688 19.523438 C 21.160156 19.953125 21.203125 19.925781 20.507812 19.925781 L 19.972656 19.925781 L 19.851562 19.886719 C 19.445312 19.742188 19.046875 19.367188 18.902344 18.988281 C 18.828125 18.800781 18.824219 18.734375 18.824219 17.101562 C 18.824219 16.125 18.820312 15.542969 18.808594 15.480469 C 18.777344 15.269531 18.679688 15.191406 18.414062 15.15625 C 18.144531 15.125 18.140625 15.113281 18.132812 14.675781 C 18.125 14.28125 18.15625 14.21875 18.355469 14.21875 C 18.554688 14.21875 18.710938 14.15625 18.769531 14.050781 C 18.839844 13.9375 18.84375 13.84375 18.832031 12.914062 C 18.820312 12.0625 18.820312 12.050781 18.851562 11.980469 C 18.871094 11.941406 18.886719 11.910156 18.886719 11.910156 C 18.890625 11.910156 18.917969 11.898438 18.953125 11.886719 C 19.039062 11.855469 19.769531 11.863281 19.835938 11.894531 M 25.246094 13.574219 C 25.507812 13.714844 25.835938 14.015625 26.089844 14.347656 C 26.324219 14.660156 26.371094 14.691406 26.707031 14.761719 C 27.554688 14.9375 28.199219 15.1875 28.925781 15.628906 C 29.316406 15.863281 29.390625 15.878906 29.773438 15.816406 C 30.257812 15.738281 30.886719 15.804688 31.019531 15.949219 C 31.125 16.066406 31.019531 16.523438 30.765625 17.070312 C 30.625 17.367188 30.625 17.402344 30.714844 17.820312 C 30.820312 18.300781 30.753906 18.886719 30.53125 19.453125 C 29.941406 20.949219 28.871094 21.5 27.253906 21.140625 C 26.78125 21.035156 26.628906 21.144531 26.800781 21.46875 C 26.992188 21.839844 27.007812 21.886719 26.996094 22.15625 C 26.992188 22.289062 26.980469 22.371094 26.957031 22.449219 C 26.910156 22.589844 26.636719 23.316406 26.503906 23.648438 C 26.292969 24.179688 26.265625 24.292969 26.316406 24.523438 C 26.371094 24.785156 26.28125 24.820312 26.085938 24.613281 C 25.839844 24.359375 25.851562 24.269531 26.210938 23.382812 C 26.53125 22.589844 26.527344 22.601562 26.527344 22.417969 C 26.527344 22.007812 26.171875 21.859375 25.992188 22.195312 C 25.957031 22.261719 25.453125 23.488281 25.339844 23.78125 C 25.269531 23.964844 25.234375 24.101562 25.207031 24.273438 C 25.175781 24.492188 25.144531 24.523438 25.042969 24.441406 C 24.871094 24.3125 24.835938 23.9375 24.960938 23.566406 C 24.984375 23.496094 25.140625 23.09375 25.3125 22.671875 C 25.644531 21.859375 25.664062 21.796875 25.621094 21.667969 C 25.542969 21.4375 25.21875 21.375 25.054688 21.558594 C 24.992188 21.632812 24.972656 21.675781 24.644531 22.480469 C 24.210938 23.550781 24.117188 23.699219 23.828125 23.835938 C 23.53125 23.976562 23.433594 23.878906 23.613281 23.628906 C 23.734375 23.460938 23.816406 23.308594 23.945312 22.996094 C 23.992188 22.882812 24.074219 22.6875 24.128906 22.558594 C 24.597656 21.460938 24.628906 21.300781 24.363281 21.242188 C 24.054688 21.171875 23.917969 21.378906 23.40625 22.671875 C 23.203125 23.195312 22.976562 23.363281 22.625 23.257812 C 22.476562 23.214844 22.480469 23.164062 22.648438 23.054688 C 22.921875 22.875 23.03125 22.707031 23.203125 22.179688 C 23.378906 21.648438 23.34375 21.535156 22.980469 21.425781 C 22.703125 21.339844 22.496094 21.21875 22.285156 21.015625 C 22.007812 20.75 21.933594 20.582031 21.839844 20.023438 C 21.773438 19.632812 21.703125 19.425781 21.523438 19.117188 C 21.480469 19.039062 21.492188 19.003906 21.5625 19.003906 C 21.722656 19.003906 21.855469 19.179688 21.992188 19.582031 C 22.210938 20.207031 22.390625 20.488281 22.703125 20.699219 C 23.105469 20.96875 23.527344 20.976562 23.902344 20.722656 C 24.097656 20.59375 24.167969 20.5625 24.398438 20.511719 C 24.820312 20.425781 24.820312 20.222656 24.402344 19.972656 C 23.183594 19.238281 22.660156 18.394531 22.792969 17.386719 C 22.921875 16.402344 23.371094 15.59375 24.035156 15.152344 C 24.347656 14.945312 24.382812 14.902344 24.472656 14.558594 C 24.535156 14.3125 24.621094 14.101562 24.738281 13.90625 C 24.957031 13.53125 25.050781 13.472656 25.246094 13.574219 M 7.3125 13.832031 C 6.597656 13.941406 5.84375 14.492188 5.625 15.0625 C 5.261719 16.003906 5.851562 16.886719 7.101562 17.273438 C 8.300781 17.640625 8.71875 17.980469 8.535156 18.4375 C 8.429688 18.710938 8.128906 18.863281 7.675781 18.882812 C 7.242188 18.898438 6.957031 18.796875 6.382812 18.421875 C 5.972656 18.152344 5.972656 18.152344 5.546875 18.539062 C 5.15625 18.890625 5.148438 18.96875 5.46875 19.269531 C 5.882812 19.664062 6.308594 19.910156 6.765625 20.019531 C 6.921875 20.058594 7.820312 20.066406 8.09375 20.03125 C 8.683594 19.960938 9.066406 19.789062 9.511719 19.390625 C 9.878906 19.0625 9.972656 18.859375 9.976562 18.398438 C 9.976562 17.375 9.535156 16.828125 8.398438 16.453125 C 7.273438 16.082031 6.804688 15.71875 6.972656 15.351562 C 7.144531 14.972656 7.8125 14.957031 8.617188 15.316406 C 8.953125 15.464844 9.015625 15.449219 9.355469 15.113281 C 9.730469 14.738281 9.707031 14.632812 9.140625 14.261719 C 8.652344 13.9375 7.839844 13.746094 7.3125 13.832031 M 8.007812 13.972656 C 8.542969 14.050781 9.003906 14.253906 9.34375 14.5625 C 9.527344 14.722656 9.515625 14.78125 9.246094 15.046875 C 8.964844 15.324219 8.957031 15.324219 8.59375 15.171875 C 7.664062 14.78125 6.921875 14.882812 6.824219 15.410156 C 6.746094 15.835938 7.234375 16.199219 8.378906 16.574219 C 9.460938 16.929688 9.878906 17.464844 9.851562 18.464844 C 9.839844 18.832031 9.78125 18.957031 9.488281 19.242188 C 8.9375 19.773438 8.53125 19.917969 7.546875 19.929688 C 6.617188 19.941406 6.273438 19.820312 5.621094 19.25 C 5.316406 18.980469 5.3125 18.921875 5.597656 18.65625 C 5.984375 18.296875 5.980469 18.300781 6.332031 18.535156 C 7.054688 19.011719 7.628906 19.128906 8.191406 18.910156 C 8.703125 18.710938 8.863281 18.164062 8.511719 17.808594 C 8.285156 17.582031 7.84375 17.375 7.125 17.152344 C 6.8125 17.054688 6.691406 17.003906 6.527344 16.910156 C 5.386719 16.238281 5.34375 15.050781 6.429688 14.316406 C 6.730469 14.113281 7.035156 13.996094 7.402344 13.945312 C 7.484375 13.933594 7.84375 13.949219 8.007812 13.972656 M 14.390625 15.195312 C 14.324219 15.214844 13.078125 15.554688 12.921875 15.597656 C 12.535156 15.710938 12.53125 15.714844 12.253906 16.84375 C 11.96875 18.003906 11.921875 17.832031 12.722656 18.644531 C 13.675781 19.609375 13.488281 19.550781 14.59375 19.246094 C 15.855469 18.898438 15.699219 19.058594 16.023438 17.761719 C 16.296875 16.652344 16.328125 16.796875 15.652344 16.105469 C 14.722656 15.148438 14.6875 15.125 14.390625 15.195312 M 14.699219 15.351562 C 14.78125 15.394531 14.863281 15.472656 15.5 16.117188 C 16.203125 16.835938 16.164062 16.664062 15.894531 17.765625 C 15.601562 18.953125 15.746094 18.800781 14.621094 19.109375 C 13.511719 19.414062 13.714844 19.472656 12.871094 18.621094 C 12.046875 17.789062 12.097656 17.976562 12.378906 16.84375 C 12.648438 15.757812 12.613281 15.8125 13.09375 15.675781 C 14.46875 15.289062 14.542969 15.273438 14.699219 15.351562 "/>
<path style=" stroke:none;fill-rule:evenodd;fill:rgb(80.392157%,80.392157%,80.392157%);fill-opacity:1;" d="M 12.324219 11.296875 C 12.15625 11.355469 12.113281 11.457031 11.941406 12.148438 C 11.828125 12.617188 11.546875 13.738281 10.515625 17.902344 C 10.433594 18.234375 10.332031 18.632812 10.289062 18.796875 C 10.097656 19.523438 10.125 19.566406 10.996094 19.816406 C 11.625 20 11.769531 19.988281 11.886719 19.753906 C 11.972656 19.585938 12 19.59375 12.257812 19.847656 C 12.765625 20.355469 13.496094 20.640625 14.285156 20.640625 C 16.375 20.640625 17.949219 18.285156 17.257812 16.199219 C 16.734375 14.625 15.3125 13.832031 13.636719 14.183594 C 13.242188 14.265625 13.246094 14.355469 13.574219 13.027344 C 13.949219 11.519531 13.988281 11.621094 12.980469 11.378906 C 12.5625 11.277344 12.429688 11.261719 12.324219 11.296875 M 13.035156 11.476562 C 13.886719 11.6875 13.851562 11.566406 13.484375 13.058594 C 13.144531 14.433594 13.140625 14.382812 13.542969 14.289062 C 14.261719 14.113281 15.121094 14.175781 15.675781 14.4375 C 16.84375 15 17.5625 16.492188 17.292969 17.804688 C 16.945312 19.519531 15.53125 20.710938 14.027344 20.550781 C 13.25 20.464844 12.632812 20.171875 12.210938 19.6875 C 11.980469 19.421875 11.949219 19.421875 11.835938 19.652344 C 11.710938 19.90625 11.625 19.914062 11.023438 19.742188 C 10.394531 19.558594 10.332031 19.527344 10.289062 19.351562 C 10.261719 19.230469 10.117188 19.839844 11.617188 13.792969 C 12.179688 11.519531 12.171875 11.550781 12.25 11.464844 C 12.363281 11.328125 12.449219 11.328125 13.035156 11.476562 M 18.808594 11.585938 C 18.527344 11.664062 18.523438 11.671875 18.523438 12.859375 L 18.523438 13.804688 L 18.472656 13.855469 C 18.445312 13.882812 18.410156 13.90625 18.394531 13.90625 C 17.945312 13.910156 17.835938 14.015625 17.824219 14.460938 C 17.804688 15.261719 17.867188 15.410156 18.246094 15.453125 C 18.402344 15.46875 18.441406 15.484375 18.484375 15.542969 C 18.515625 15.585938 18.515625 15.59375 18.527344 17.226562 C 18.535156 19.042969 18.527344 18.910156 18.636719 19.152344 C 18.828125 19.566406 19.226562 19.949219 19.660156 20.136719 C 19.875 20.230469 19.9375 20.238281 20.597656 20.230469 C 21.257812 20.226562 21.234375 20.230469 21.378906 20.113281 C 21.5 20.019531 21.515625 20.035156 21.578125 20.3125 C 21.730469 20.984375 22.125 21.433594 22.78125 21.679688 C 23.003906 21.765625 23.011719 21.789062 22.90625 22.117188 C 22.742188 22.625 22.667969 22.71875 22.34375 22.855469 C 22.164062 22.929688 22.117188 22.957031 22.070312 23.039062 C 21.863281 23.375 22.449219 23.679688 23.0625 23.550781 C 23.230469 23.515625 23.242188 23.523438 23.164062 23.644531 C 22.976562 23.929688 23.042969 24.121094 23.351562 24.1875 C 23.757812 24.277344 24.085938 24.125 24.449219 23.671875 C 24.605469 23.476562 24.609375 23.476562 24.589844 23.703125 C 24.550781 24.246094 24.617188 24.472656 24.878906 24.730469 C 25.246094 25.085938 25.53125 24.941406 25.542969 24.402344 C 25.546875 24.359375 25.589844 24.40625 25.640625 24.5 C 25.851562 24.890625 26.15625 25.132812 26.449219 25.152344 C 26.742188 25.167969 26.835938 24.960938 26.683594 24.621094 C 26.566406 24.359375 26.574219 24.289062 26.773438 23.789062 C 27.335938 22.382812 27.386719 22.15625 27.246094 21.691406 C 27.179688 21.464844 27.199219 21.453125 27.546875 21.511719 C 28.695312 21.707031 29.734375 21.308594 30.347656 20.4375 C 30.945312 19.585938 31.1875 18.582031 31.003906 17.710938 C 30.945312 17.425781 30.949219 17.394531 31.066406 17.144531 C 31.328125 16.582031 31.441406 16.019531 31.339844 15.816406 C 31.199219 15.542969 30.53125 15.410156 29.761719 15.511719 C 29.398438 15.558594 29.398438 15.558594 29.050781 15.347656 C 28.3125 14.910156 27.648438 14.648438 26.878906 14.488281 C 26.523438 14.414062 26.511719 14.40625 26.320312 14.160156 C 25.867188 13.558594 25.25 13.125 24.96875 13.207031 C 24.734375 13.273438 24.347656 13.871094 24.203125 14.386719 C 24.179688 14.464844 24.152344 14.5625 24.140625 14.605469 C 24.109375 14.714844 24.042969 14.785156 23.835938 14.925781 C 23.316406 15.277344 22.90625 15.847656 22.675781 16.542969 C 22.207031 17.945312 22.542969 18.996094 23.738281 19.886719 C 23.851562 19.972656 23.984375 20.066406 24.027344 20.101562 C 24.152344 20.195312 24.140625 20.230469 23.941406 20.339844 C 23.878906 20.375 23.785156 20.433594 23.734375 20.472656 C 23.511719 20.628906 23.25 20.640625 22.96875 20.503906 C 22.675781 20.363281 22.492188 20.09375 22.296875 19.53125 C 22.058594 18.828125 21.820312 18.605469 21.347656 18.640625 C 20.460938 18.703125 20.277344 18.617188 20.25 18.132812 C 20.226562 17.730469 20.253906 15.597656 20.28125 15.546875 C 20.328125 15.464844 20.351562 15.460938 20.84375 15.453125 C 21.558594 15.4375 21.570312 15.425781 21.574219 14.664062 C 21.578125 13.9375 21.554688 13.917969 20.832031 13.90625 C 20.1875 13.890625 20.257812 14.023438 20.25 12.824219 C 20.238281 11.707031 20.242188 11.710938 20.027344 11.613281 L 19.941406 11.574219 L 19.410156 11.570312 C 19.019531 11.566406 18.859375 11.570312 18.808594 11.585938 M 19.957031 11.675781 C 20.167969 11.769531 20.175781 11.816406 20.175781 12.90625 C 20.175781 14.070312 20.117188 13.964844 20.789062 13.980469 C 21.492188 13.992188 21.488281 13.988281 21.488281 14.664062 C 21.488281 15.367188 21.492188 15.363281 20.789062 15.375 C 20.296875 15.382812 20.269531 15.390625 20.210938 15.484375 C 20.15625 15.578125 20.140625 18.203125 20.195312 18.367188 C 20.304688 18.703125 20.492188 18.757812 21.421875 18.71875 C 21.792969 18.703125 22.003906 18.925781 22.21875 19.542969 C 22.453125 20.222656 22.6875 20.515625 23.101562 20.640625 C 23.359375 20.722656 23.554688 20.6875 23.800781 20.523438 C 23.875 20.472656 24.007812 20.394531 24.097656 20.355469 C 24.339844 20.238281 24.335938 20.210938 24.011719 19.988281 C 22.640625 19.035156 22.269531 18.03125 22.75 16.566406 C 22.976562 15.882812 23.378906 15.332031 23.910156 14.96875 C 24.164062 14.800781 24.179688 14.773438 24.253906 14.496094 C 24.425781 13.855469 24.820312 13.273438 25.085938 13.273438 C 25.316406 13.273438 25.902344 13.742188 26.257812 14.203125 C 26.460938 14.472656 26.484375 14.488281 26.820312 14.558594 C 27.625 14.726562 28.292969 14.988281 28.988281 15.40625 C 29.371094 15.636719 29.386719 15.640625 29.8125 15.585938 C 30.4375 15.503906 31.085938 15.609375 31.234375 15.820312 C 31.367188 16.007812 31.269531 16.511719 30.980469 17.136719 C 30.875 17.359375 30.863281 17.464844 30.910156 17.671875 C 31.050781 18.269531 30.996094 18.886719 30.738281 19.53125 C 30.132812 21.058594 29.03125 21.683594 27.429688 21.410156 C 27.078125 21.351562 27.042969 21.375 27.132812 21.621094 C 27.320312 22.117188 27.289062 22.261719 26.714844 23.722656 C 26.484375 24.304688 26.480469 24.335938 26.601562 24.632812 C 26.675781 24.828125 26.683594 24.898438 26.640625 24.96875 C 26.492188 25.214844 25.964844 24.949219 25.761719 24.53125 C 25.632812 24.269531 25.648438 24.148438 25.890625 23.550781 C 26.300781 22.546875 26.324219 22.472656 26.265625 22.402344 C 26.199219 22.324219 26.15625 22.394531 25.949219 22.898438 C 25.46875 24.0625 25.441406 24.144531 25.429688 24.449219 C 25.417969 24.792969 25.320312 24.890625 25.101562 24.789062 C 24.847656 24.667969 24.675781 24.382812 24.664062 24.050781 C 24.652344 23.71875 24.675781 23.636719 25.082031 22.640625 C 25.390625 21.882812 25.414062 21.8125 25.351562 21.75 C 25.242188 21.640625 25.214844 21.683594 24.847656 22.582031 C 24.480469 23.484375 24.417969 23.605469 24.210938 23.824219 C 23.949219 24.105469 23.523438 24.214844 23.269531 24.066406 C 23.109375 23.972656 23.121094 23.839844 23.308594 23.632812 C 23.441406 23.488281 23.519531 23.367188 23.574219 23.234375 C 23.597656 23.183594 23.6875 22.964844 23.78125 22.753906 C 24.171875 21.839844 24.246094 21.636719 24.191406 21.605469 C 24.132812 21.570312 23.949219 21.945312 23.675781 22.667969 C 23.4375 23.296875 23.210938 23.503906 22.753906 23.503906 C 22.152344 23.503906 21.917969 23.125 22.390625 22.921875 C 22.714844 22.78125 22.800781 22.675781 22.964844 22.195312 C 23.117188 21.742188 23.109375 21.71875 22.820312 21.609375 C 22.136719 21.355469 21.789062 20.933594 21.636719 20.1875 C 21.546875 19.730469 21.488281 19.628906 21.421875 19.8125 C 21.339844 20.03125 21.285156 20.097656 21.144531 20.136719 C 21.019531 20.175781 19.988281 20.164062 19.851562 20.125 C 19.417969 20 18.949219 19.597656 18.734375 19.164062 C 18.601562 18.894531 18.609375 19.03125 18.601562 17.183594 C 18.59375 16.011719 18.585938 15.535156 18.574219 15.511719 C 18.535156 15.425781 18.472656 15.394531 18.292969 15.375 C 17.96875 15.339844 17.925781 15.277344 17.910156 14.765625 C 17.886719 14.113281 17.929688 14.027344 18.296875 13.996094 C 18.632812 13.964844 18.617188 14.019531 18.613281 12.816406 L 18.609375 11.902344 L 18.644531 11.832031 C 18.726562 11.65625 18.800781 11.640625 19.425781 11.644531 C 19.839844 11.648438 19.90625 11.652344 19.957031 11.675781 M 7.28125 13.652344 C 6.398438 13.789062 5.5625 14.476562 5.382812 15.21875 C 5.148438 16.171875 5.808594 17.0625 7.019531 17.4375 C 8.144531 17.785156 8.523438 18.058594 8.347656 18.402344 C 8.25 18.59375 8.03125 18.6875 7.648438 18.699219 C 7.277344 18.710938 6.972656 18.597656 6.476562 18.265625 C 5.972656 17.925781 5.949219 17.929688 5.421875 18.410156 C 5.027344 18.765625 4.976562 18.871094 5.078125 19.089844 C 5.175781 19.308594 5.738281 19.777344 6.160156 19.992188 C 6.558594 20.195312 6.78125 20.238281 7.460938 20.238281 C 8.523438 20.234375 8.996094 20.082031 9.605469 19.546875 C 10.0625 19.144531 10.191406 18.859375 10.164062 18.308594 C 10.101562 17.210938 9.636719 16.667969 8.410156 16.265625 C 7.445312 15.949219 7.015625 15.648438 7.167969 15.394531 C 7.316406 15.152344 7.878906 15.191406 8.558594 15.488281 C 8.996094 15.679688 9.050781 15.664062 9.496094 15.226562 C 9.972656 14.753906 9.9375 14.578125 9.265625 14.125 C 8.738281 13.769531 7.867188 13.558594 7.28125 13.652344 M 8.046875 13.753906 C 8.660156 13.84375 9.164062 14.078125 9.558594 14.457031 C 9.8125 14.703125 9.792969 14.808594 9.421875 15.179688 C 9.027344 15.570312 8.988281 15.582031 8.578125 15.410156 C 7.808594 15.082031 7.21875 15.070312 7.078125 15.378906 C 6.933594 15.699219 7.371094 16.011719 8.453125 16.363281 C 9.589844 16.734375 10.078125 17.347656 10.078125 18.398438 C 10.082031 18.855469 10 19.046875 9.675781 19.367188 C 9.054688 19.984375 8.578125 20.152344 7.460938 20.152344 C 6.503906 20.152344 6.0625 19.976562 5.398438 19.335938 C 4.996094 18.953125 5.011719 18.882812 5.601562 18.355469 C 5.945312 18.046875 6.003906 18.046875 6.417969 18.320312 C 6.984375 18.699219 7.34375 18.824219 7.746094 18.78125 C 8.117188 18.742188 8.332031 18.628906 8.429688 18.429688 C 8.621094 18.03125 8.226562 17.726562 7.050781 17.363281 C 5.292969 16.820312 4.859375 15.21875 6.195312 14.214844 C 6.765625 13.785156 7.320312 13.644531 8.046875 13.753906 M 13.726562 15.609375 C 12.753906 15.875 12.785156 15.863281 12.707031 16.023438 C 12.632812 16.175781 12.277344 17.648438 12.289062 17.761719 C 12.300781 17.890625 12.320312 17.917969 12.742188 18.351562 C 13.597656 19.234375 13.628906 19.257812 13.859375 19.207031 C 14.003906 19.179688 15.3125 18.816406 15.378906 18.789062 C 15.550781 18.714844 15.558594 18.695312 15.789062 17.761719 C 15.996094 16.925781 16.003906 16.871094 15.945312 16.746094 C 15.898438 16.648438 14.757812 15.496094 14.664062 15.449219 C 14.542969 15.390625 14.472656 15.402344 13.726562 15.609375 M 14.621094 15.523438 C 14.710938 15.566406 15.800781 16.664062 15.859375 16.773438 C 15.921875 16.886719 15.917969 16.90625 15.714844 17.734375 C 15.488281 18.644531 15.492188 18.636719 15.355469 18.707031 C 15.28125 18.746094 13.902344 19.125 13.796875 19.136719 C 13.652344 19.148438 13.640625 19.140625 13.011719 18.507812 C 12.394531 17.886719 12.375 17.863281 12.375 17.71875 C 12.375 17.585938 12.734375 16.125 12.792969 16.035156 C 12.851562 15.9375 12.902344 15.917969 13.546875 15.742188 C 14.546875 15.464844 14.507812 15.472656 14.621094 15.523438 "/>
<path style=" stroke:none;fill-rule:evenodd;fill:rgb(73.72549%,73.72549%,73.72549%);fill-opacity:1;" d="M 12.371094 11.378906 C 12.191406 11.433594 12.242188 11.277344 11.617188 13.792969 C 10.117188 19.839844 10.261719 19.230469 10.289062 19.351562 C 10.332031 19.527344 10.394531 19.558594 11.023438 19.742188 C 11.625 19.914062 11.710938 19.90625 11.835938 19.652344 C 11.949219 19.421875 11.980469 19.421875 12.210938 19.6875 C 12.960938 20.550781 14.386719 20.8125 15.472656 20.289062 C 16.941406 19.574219 17.703125 17.730469 17.167969 16.183594 C 16.628906 14.632812 15.199219 13.886719 13.542969 14.289062 C 13.140625 14.382812 13.144531 14.433594 13.484375 13.058594 C 13.851562 11.566406 13.886719 11.6875 13.035156 11.476562 C 12.566406 11.359375 12.476562 11.34375 12.371094 11.378906 M 12.984375 11.503906 C 13.441406 11.617188 13.535156 11.644531 13.601562 11.703125 C 13.742188 11.828125 13.742188 11.824219 13.4375 13.066406 C 13.128906 14.332031 13.128906 14.328125 13.253906 14.371094 C 13.308594 14.386719 13.296875 14.390625 13.558594 14.328125 C 15.207031 13.929688 16.601562 14.675781 17.136719 16.230469 C 17.6875 17.835938 16.777344 19.777344 15.207031 20.355469 C 14.167969 20.738281 12.878906 20.421875 12.210938 19.621094 C 11.984375 19.347656 11.925781 19.34375 11.820312 19.582031 C 11.695312 19.859375 11.621094 19.871094 11.039062 19.703125 C 10.476562 19.539062 10.429688 19.519531 10.363281 19.402344 C 10.296875 19.289062 10.296875 19.285156 10.746094 17.484375 C 10.972656 16.566406 11.386719 14.890625 11.667969 13.761719 C 12.210938 11.574219 12.214844 11.566406 12.292969 11.488281 C 12.402344 11.378906 12.464844 11.378906 12.984375 11.503906 M 18.867188 11.660156 C 18.761719 11.683594 18.6875 11.738281 18.644531 11.832031 L 18.609375 11.902344 L 18.613281 12.816406 C 18.617188 14.019531 18.632812 13.964844 18.296875 13.996094 C 17.929688 14.027344 17.886719 14.113281 17.910156 14.765625 C 17.925781 15.277344 17.96875 15.339844 18.292969 15.375 C 18.472656 15.394531 18.535156 15.425781 18.574219 15.511719 C 18.585938 15.535156 18.59375 16.011719 18.601562 17.183594 C 18.609375 19.03125 18.601562 18.894531 18.734375 19.164062 C 18.949219 19.597656 19.417969 20 19.851562 20.125 C 19.988281 20.164062 21.019531 20.175781 21.144531 20.136719 C 21.285156 20.097656 21.339844 20.03125 21.421875 19.8125 C 21.488281 19.628906 21.546875 19.730469 21.636719 20.1875 C 21.789062 20.933594 22.136719 21.355469 22.820312 21.609375 C 23.109375 21.71875 23.117188 21.742188 22.964844 22.195312 C 22.800781 22.675781 22.714844 22.78125 22.390625 22.921875 C 21.917969 23.125 22.152344 23.503906 22.753906 23.503906 C 23.210938 23.503906 23.4375 23.296875 23.675781 22.667969 C 23.949219 21.945312 24.132812 21.570312 24.191406 21.605469 C 24.246094 21.636719 24.171875 21.839844 23.78125 22.753906 C 23.6875 22.964844 23.597656 23.183594 23.574219 23.234375 C 23.519531 23.367188 23.441406 23.488281 23.308594 23.632812 C 23.121094 23.839844 23.109375 23.972656 23.269531 24.066406 C 23.523438 24.214844 23.949219 24.105469 24.210938 23.824219 C 24.417969 23.605469 24.480469 23.484375 24.847656 22.582031 C 25.214844 21.683594 25.242188 21.640625 25.351562 21.75 C 25.414062 21.8125 25.390625 21.882812 25.082031 22.640625 C 24.675781 23.636719 24.652344 23.71875 24.664062 24.050781 C 24.675781 24.382812 24.847656 24.667969 25.101562 24.789062 C 25.320312 24.890625 25.417969 24.792969 25.429688 24.449219 C 25.441406 24.144531 25.46875 24.0625 25.949219 22.898438 C 26.15625 22.394531 26.199219 22.324219 26.265625 22.402344 C 26.324219 22.472656 26.300781 22.546875 25.890625 23.550781 C 25.648438 24.148438 25.632812 24.269531 25.761719 24.53125 C 25.964844 24.949219 26.492188 25.214844 26.640625 24.96875 C 26.683594 24.898438 26.675781 24.828125 26.601562 24.632812 C 26.480469 24.335938 26.484375 24.304688 26.714844 23.722656 C 27.289062 22.261719 27.320312 22.117188 27.132812 21.621094 C 27.042969 21.375 27.078125 21.351562 27.429688 21.410156 C 29.03125 21.683594 30.132812 21.058594 30.738281 19.53125 C 30.996094 18.886719 31.050781 18.269531 30.910156 17.671875 C 30.863281 17.464844 30.875 17.359375 30.980469 17.136719 C 31.269531 16.511719 31.367188 16.007812 31.234375 15.820312 C 31.085938 15.609375 30.4375 15.503906 29.8125 15.585938 C 29.386719 15.640625 29.371094 15.636719 28.988281 15.40625 C 28.292969 14.988281 27.625 14.726562 26.820312 14.558594 C 26.484375 14.488281 26.460938 14.472656 26.257812 14.203125 C 25.902344 13.742188 25.316406 13.273438 25.085938 13.273438 C 24.820312 13.273438 24.425781 13.855469 24.253906 14.496094 C 24.179688 14.773438 24.164062 14.800781 23.910156 14.96875 C 23.378906 15.332031 22.976562 15.882812 22.75 16.566406 C 22.269531 18.03125 22.640625 19.035156 24.011719 19.988281 C 24.335938 20.210938 24.339844 20.238281 24.097656 20.355469 C 24.007812 20.394531 23.875 20.472656 23.800781 20.523438 C 23.554688 20.6875 23.359375 20.722656 23.101562 20.640625 C 22.6875 20.515625 22.453125 20.222656 22.21875 19.542969 C 22.003906 18.925781 21.792969 18.703125 21.421875 18.71875 C 20.597656 18.753906 20.402344 18.71875 20.265625 18.515625 C 20.160156 18.355469 20.140625 17.925781 20.171875 16.222656 C 20.1875 15.304688 20.125 15.386719 20.789062 15.375 C 21.492188 15.363281 21.488281 15.367188 21.488281 14.664062 C 21.488281 13.988281 21.492188 13.992188 20.789062 13.980469 C 20.117188 13.964844 20.175781 14.070312 20.175781 12.90625 C 20.175781 11.585938 20.210938 11.652344 19.425781 11.644531 C 19.089844 11.640625 18.929688 11.648438 18.867188 11.660156 M 19.875 11.699219 C 19.976562 11.722656 20.035156 11.773438 20.082031 11.863281 L 20.121094 11.949219 L 20.128906 12.886719 C 20.140625 14.125 20.074219 14.011719 20.773438 14.023438 C 21.292969 14.035156 21.324219 14.042969 21.402344 14.171875 L 21.441406 14.242188 L 21.441406 15.113281 L 21.402344 15.179688 C 21.324219 15.316406 21.300781 15.320312 20.78125 15.332031 C 20.222656 15.339844 20.1875 15.355469 20.148438 15.535156 C 20.125 15.648438 20.105469 18.03125 20.128906 18.21875 C 20.183594 18.703125 20.527344 18.855469 21.335938 18.765625 C 21.558594 18.738281 21.679688 18.777344 21.832031 18.914062 C 21.976562 19.050781 22.039062 19.167969 22.195312 19.605469 C 22.394531 20.171875 22.597656 20.457031 22.910156 20.609375 C 23.261719 20.78125 23.503906 20.765625 23.835938 20.550781 C 23.929688 20.488281 24.058594 20.417969 24.125 20.394531 C 24.445312 20.265625 24.441406 20.226562 24.082031 19.980469 C 22.773438 19.097656 22.363281 18.160156 22.710938 16.851562 C 22.925781 16.035156 23.34375 15.402344 23.925781 15.011719 C 24.191406 14.832031 24.226562 14.785156 24.292969 14.523438 C 24.425781 13.996094 24.789062 13.394531 25.011719 13.332031 C 25.234375 13.273438 25.84375 13.722656 26.222656 14.230469 C 26.425781 14.5 26.472656 14.527344 26.792969 14.59375 C 27.601562 14.765625 28.292969 15.035156 28.996094 15.460938 C 29.359375 15.679688 29.378906 15.683594 29.808594 15.628906 C 30.402344 15.550781 31.007812 15.640625 31.175781 15.824219 C 31.234375 15.890625 31.269531 16.015625 31.253906 16.113281 C 31.199219 16.460938 31.117188 16.730469 30.960938 17.078125 C 30.820312 17.382812 30.816406 17.417969 30.886719 17.746094 C 31.101562 18.746094 30.628906 20.136719 29.84375 20.824219 C 29.226562 21.363281 28.34375 21.554688 27.398438 21.359375 C 27.003906 21.277344 26.957031 21.320312 27.089844 21.632812 C 27.28125 22.09375 27.246094 22.261719 26.632812 23.816406 C 26.449219 24.28125 26.441406 24.351562 26.554688 24.640625 C 26.757812 25.15625 26.1875 25.128906 25.851562 24.605469 C 25.65625 24.304688 25.667969 24.226562 26.042969 23.300781 C 26.367188 22.507812 26.394531 22.402344 26.289062 22.308594 C 26.179688 22.214844 26.164062 22.238281 25.792969 23.152344 C 25.414062 24.078125 25.378906 24.191406 25.378906 24.507812 C 25.378906 24.957031 24.890625 24.773438 24.730469 24.261719 C 24.632812 23.941406 24.679688 23.753906 25.117188 22.671875 C 25.480469 21.78125 25.488281 21.746094 25.363281 21.683594 C 25.207031 21.601562 25.179688 21.640625 24.835938 22.492188 C 24.402344 23.558594 24.359375 23.636719 24.117188 23.855469 C 23.789062 24.152344 23.21875 24.167969 23.21875 23.878906 C 23.21875 23.8125 23.253906 23.757812 23.371094 23.628906 C 23.511719 23.472656 23.589844 23.347656 23.699219 23.085938 C 23.75 22.964844 23.859375 22.710938 23.941406 22.519531 C 24.324219 21.628906 24.359375 21.496094 24.222656 21.496094 C 24.097656 21.496094 24.011719 21.660156 23.609375 22.675781 C 23.335938 23.367188 23.042969 23.566406 22.507812 23.429688 C 22.097656 23.324219 22.082031 23.121094 22.464844 22.933594 C 22.765625 22.789062 22.855469 22.664062 23.023438 22.148438 C 23.164062 21.71875 23.152344 21.679688 22.835938 21.570312 C 22.179688 21.339844 21.804688 20.882812 21.675781 20.144531 C 21.5625 19.511719 21.441406 19.371094 21.359375 19.777344 C 21.328125 19.949219 21.285156 20.023438 21.191406 20.074219 C 21.101562 20.121094 20.003906 20.125 19.851562 20.078125 C 19.429688 19.949219 18.976562 19.558594 18.773438 19.148438 C 18.644531 18.886719 18.65625 19.039062 18.644531 17.183594 C 18.636719 15.546875 18.636719 15.53125 18.605469 15.472656 C 18.5625 15.386719 18.488281 15.351562 18.3125 15.332031 C 18.011719 15.300781 17.972656 15.246094 17.953125 14.816406 C 17.917969 14.128906 17.949219 14.078125 18.386719 14.027344 C 18.664062 13.996094 18.652344 14.042969 18.648438 12.914062 C 18.640625 11.601562 18.589844 11.6875 19.371094 11.6875 C 19.621094 11.6875 19.835938 11.691406 19.875 11.699219 M 7.328125 13.726562 C 6.503906 13.835938 5.664062 14.5 5.476562 15.183594 C 5.21875 16.121094 5.84375 16.988281 7.050781 17.363281 C 8.226562 17.726562 8.621094 18.03125 8.429688 18.429688 C 8.332031 18.628906 8.117188 18.742188 7.746094 18.78125 C 7.34375 18.824219 6.984375 18.699219 6.417969 18.320312 C 6.003906 18.046875 5.945312 18.046875 5.601562 18.355469 C 5.011719 18.882812 4.996094 18.953125 5.398438 19.335938 C 6.0625 19.976562 6.503906 20.152344 7.460938 20.152344 C 8.578125 20.152344 9.054688 19.984375 9.675781 19.367188 C 10 19.046875 10.082031 18.855469 10.078125 18.398438 C 10.078125 17.347656 9.589844 16.734375 8.453125 16.363281 C 7.371094 16.011719 6.933594 15.699219 7.078125 15.378906 C 7.21875 15.070312 7.808594 15.082031 8.578125 15.410156 C 8.988281 15.582031 9.027344 15.570312 9.421875 15.179688 C 9.792969 14.808594 9.8125 14.703125 9.558594 14.457031 C 9.023438 13.941406 8.058594 13.625 7.328125 13.726562 M 7.847656 13.769531 C 8.535156 13.839844 9.101562 14.078125 9.523438 14.480469 C 9.761719 14.710938 9.742188 14.8125 9.378906 15.167969 C 9.015625 15.523438 8.976562 15.53125 8.578125 15.363281 C 7.808594 15.035156 7.210938 15.035156 7.039062 15.359375 C 6.867188 15.6875 7.304688 16.027344 8.355469 16.375 C 9.597656 16.785156 10.058594 17.359375 10.03125 18.457031 C 10.023438 18.882812 9.960938 19.019531 9.644531 19.335938 C 9.203125 19.777344 8.832031 19.972656 8.210938 20.082031 C 8.015625 20.113281 6.972656 20.121094 6.800781 20.085938 C 6.324219 19.992188 5.816406 19.699219 5.375 19.261719 C 5.109375 18.996094 5.105469 18.878906 5.367188 18.628906 C 5.941406 18.078125 5.972656 18.070312 6.40625 18.363281 C 6.929688 18.722656 7.238281 18.835938 7.65625 18.820312 C 8.09375 18.808594 8.347656 18.6875 8.464844 18.449219 C 8.675781 18.011719 8.273438 17.691406 7.050781 17.316406 C 5.25 16.769531 4.902344 15.070312 6.394531 14.125 C 6.859375 13.828125 7.316406 13.71875 7.847656 13.769531 M 13.675781 15.578125 C 12.765625 15.828125 12.742188 15.835938 12.667969 15.996094 C 12.601562 16.136719 12.25 17.59375 12.25 17.730469 C 12.246094 17.902344 12.257812 17.914062 12.851562 18.523438 C 13.558594 19.242188 13.578125 19.261719 13.757812 19.261719 C 13.859375 19.261719 15.246094 18.890625 15.410156 18.820312 C 15.589844 18.742188 15.597656 18.730469 15.839844 17.738281 C 16.046875 16.890625 16.050781 16.851562 15.972656 16.710938 C 15.902344 16.589844 14.78125 15.464844 14.679688 15.414062 C 14.542969 15.34375 14.496094 15.351562 13.675781 15.578125 M 14.664062 15.449219 C 14.757812 15.496094 15.898438 16.648438 15.945312 16.746094 C 16.003906 16.871094 15.996094 16.925781 15.789062 17.761719 C 15.558594 18.695312 15.550781 18.714844 15.378906 18.789062 C 15.3125 18.816406 14.003906 19.179688 13.859375 19.207031 C 13.628906 19.257812 13.597656 19.234375 12.742188 18.351562 C 12.320312 17.917969 12.300781 17.890625 12.289062 17.761719 C 12.277344 17.648438 12.632812 16.175781 12.707031 16.023438 C 12.785156 15.863281 12.753906 15.875 13.726562 15.609375 C 14.472656 15.402344 14.542969 15.390625 14.664062 15.449219 "/>
</g>
</svg>
